<?xml version="1.0" standalone="no"?>
<!DOCTYPE svg PUBLIC "-//W3C//DTD SVG 20010904//EN"
 "http://www.w3.org/TR/2001/REC-SVG-20010904/DTD/svg10.dtd">
<svg version="1.0" xmlns="http://www.w3.org/2000/svg"
 width="700.000000pt" height="700.000000pt" viewBox="0 0 700.000000 700.000000"
 preserveAspectRatio="xMidYMid meet">
<metadata>
Created by potrace 1.11, written by Peter Selinger 2001-2013
</metadata>
<g transform="translate(0.000000,700.000000) scale(0.100000,-0.100000)"
fill="#000000" stroke="none">
<path d="M5018 5915 c-2 -1 -39 -5 -83 -9 -44 -3 -96 -8 -115 -11 -19 -2 -57
-7 -85 -10 -96 -12 -121 -17 -240 -42 -236 -49 -500 -124 -675 -193 -57 -22
-107 -40 -111 -40 -4 0 -36 -13 -71 -29 -35 -15 -88 -39 -118 -52 -131 -57
-392 -188 -505 -254 -33 -19 -80 -46 -105 -60 -58 -33 -99 -58 -331 -208 -96
-61 -353 -246 -439 -314 -30 -25 -68 -54 -83 -66 -15 -12 -33 -27 -40 -32 -7
-6 -28 -23 -47 -39 -160 -132 -420 -380 -560 -535 -41 -46 -80 -89 -86 -95
-48 -51 -228 -287 -306 -401 -120 -177 -176 -269 -253 -420 -210 -408 -297
-767 -260 -1070 5 -38 9 -72 10 -75 1 -3 5 -23 10 -45 11 -58 58 -182 90 -240
58 -104 102 -163 185 -246 191 -191 422 -292 765 -333 111 -13 443 -14 540 -2
28 4 86 12 130 17 724 91 1528 426 2283 951 53 37 105 73 115 80 122 85 331
248 452 352 38 34 85 75 105 91 45 39 303 289 344 334 107 117 185 207 229
264 23 28 44 54 47 57 28 27 310 431 310 444 0 2 23 44 50 91 120 207 225 456
280 660 73 275 70 547 -10 766 -105 287 -327 505 -630 617 -120 44 -166 55
-365 87 -38 7 -421 15 -427 10z m267 -639 c218 -21 421 -124 508 -258 22 -36
22 -45 -5 -54 -13 -3 -41 -15 -63 -24 -22 -10 -83 -36 -135 -58 -52 -22 -284
-120 -515 -217 -231 -98 -436 -184 -455 -192 -19 -8 -44 -18 -55 -23 -11 -5
-76 -32 -145 -61 -69 -28 -143 -59 -165 -69 -22 -10 -240 -102 -485 -205 -734
-308 -754 -316 -785 -330 -16 -8 -145 -62 -285 -120 -140 -59 -268 -113 -285
-120 -16 -7 -133 -57 -260 -110 -126 -53 -254 -107 -283 -121 -29 -13 -56 -24
-61 -24 -8 0 -60 -22 -176 -75 -27 -12 -61 -26 -74 -30 -24 -7 -23 -6 9 36 66
85 156 193 205 248 79 88 292 299 379 376 44 39 84 75 90 80 76 70 382 308
556 432 544 387 1211 705 1775 847 94 23 115 28 190 41 17 3 53 10 80 15 28 5
86 12 130 16 44 3 81 7 82 8 4 4 156 -1 228 -8z m555 -747 c-152 -594 -808
-1332 -1736 -1955 -124 -83 -373 -234 -519 -316 -167 -93 -488 -237 -715 -321
-196 -72 -494 -157 -600 -171 -19 -3 -46 -7 -60 -10 -14 -3 -50 -9 -80 -12
-30 -3 -68 -8 -85 -10 -57 -8 -263 -4 -341 7 -85 11 -204 48 -269 83 -49 25
-134 88 -155 113 -69 82 -101 146 -116 234 -8 45 -8 172 0 212 15 75 29 131
53 202 l26 80 426 179 c234 99 500 210 591 248 91 38 179 75 195 83 17 7 102
43 190 80 88 36 174 73 190 80 17 7 156 66 310 130 154 65 298 125 320 135 22
10 166 71 320 135 154 64 294 122 310 130 17 7 46 20 65 28 19 8 112 47 205
86 94 40 179 76 190 81 11 5 135 57 275 115 140 59 271 113 290 122 151 65
735 310 737 309 1 -1 -7 -36 -17 -77z"/>
</g>
</svg>
