<?xml version="1.0"?><svg fill="#FFFFFF" xmlns="http://www.w3.org/2000/svg"  viewBox="0 0 50 50" width="50px" height="50px">    <path d="M 25 2 C 12.317 2 2 12.318 2 25 C 2 37.682 12.317 48 25 48 C 37.683 48 48 37.682 48 25 C 48 12.318 37.683 2 25 2 z M 11.599609 13 L 17.400391 13 C 18.283391 13 19 13.715609 19 14.599609 L 19 24.400391 C 19 25.284391 18.284391 26 17.400391 26 L 10 26 L 10 24 L 16.400391 24 C 16.731391 24 17 23.731391 17 23.400391 L 17 15.599609 C 17 15.268609 16.731391 15 16.400391 15 L 12.599609 15 C 12.268609 15 12 15.268609 12 15.599609 L 12 19.400391 C 12 19.731391 12.268609 20 12.599609 20 L 15.5 20 L 15.5 22 L 11.599609 22 C 10.716609 22 10 21.284391 10 20.400391 L 10 14.599609 C 10 13.715609 10.715609 13 11.599609 13 z M 22.099609 13 L 27.900391 13 C 28.782391 13 29.5 13.717609 29.5 14.599609 L 29.5 20.400391 C 29.5 21.282391 28.782391 22 27.900391 22 L 22.099609 22 C 21.217609 22 20.5 21.282391 20.5 20.400391 L 20.5 14.599609 C 20.5 13.717609 21.217609 13 22.099609 13 z M 32.599609 13 L 38.400391 13 C 39.283391 13 40 13.715609 40 14.599609 L 40 24.400391 C 40 25.284391 39.284391 26 38.400391 26 L 31 26 L 31 24 L 37.400391 24 C 37.731391 24 38 23.731391 38 23.400391 L 38 15.599609 C 38 15.268609 37.731391 15 37.400391 15 L 33.599609 15 C 33.268609 15 33 15.268609 33 15.599609 L 33 19.400391 C 33 19.731391 33.268609 20 33.599609 20 L 36.5 20 L 36.5 22 L 32.599609 22 C 31.716609 22 31 21.284391 31 20.400391 L 31 14.599609 C 31 13.715609 31.715609 13 32.599609 13 z M 23.099609 15 C 22.768609 15 22.5 15.268609 22.5 15.599609 L 22.5 19.400391 C 22.5 19.731391 22.768609 20 23.099609 20 L 26.900391 20 C 27.231391 20 27.5 19.731391 27.5 19.400391 L 27.5 15.599609 C 27.5 15.268609 27.231391 15 26.900391 15 L 23.099609 15 z M 11.599609 28 L 17.5 28 L 17.5 30 L 12.599609 30 C 12.268609 30 12 30.268609 12 30.599609 L 12 34.400391 C 12 34.731391 12.268609 35 12.599609 35 L 17.5 35 L 17.5 37 L 11.599609 37 C 10.716609 37 10 36.284391 10 35.400391 L 10 29.599609 C 10 28.716609 10.715609 28 11.599609 28 z M 20.599609 28 L 26.400391 28 C 27.282391 28 28 28.717609 28 29.599609 L 28 35.400391 C 28 36.282391 27.282391 37 26.400391 37 L 20.599609 37 C 19.717609 37 19 36.282391 19 35.400391 L 19 29.599609 C 19 28.717609 19.717609 28 20.599609 28 z M 31.099609 28 L 40 28 L 40 37 L 38 37 L 38 30 L 36.349609 30 C 36.018609 30 35.75 30.268609 35.75 30.599609 L 35.75 37 L 33.75 37 L 33.75 30 L 32.099609 30 C 31.768609 30 31.5 30.268609 31.5 30.599609 L 31.5 37 L 29.5 37 L 29.5 29.599609 C 29.5 28.716609 30.215609 28 31.099609 28 z M 21.599609 30 C 21.268609 30 21 30.268609 21 30.599609 L 21 34.400391 C 21 34.731391 21.268609 35 21.599609 35 L 25.400391 35 C 25.731391 35 26 34.731391 26 34.400391 L 26 30.599609 C 26 30.268609 25.731391 30 25.400391 30 L 21.599609 30 z"/></svg>