<?xml version="1.0" encoding="UTF-8"?>
<svg width="116.8" height="84.001" version="1.1" viewBox="0 0 116.8 84.001" xmlns="http://www.w3.org/2000/svg">
 <style>.st0{fill:#FFFFFF;}</style>
 <path d="m42.5 8.3102e-4s-13.7-0.3-28.1 10.5c0 0-14.4 26.101-14.4 58.301 0 0 8.4 14.499 30.5 15.199 0 0 3.7012-4.4988 6.7012-8.2988-12.7-3.8-17.5-11.801-17.5-11.801s0.99883 0.69922 2.7988 1.6992c0.1 0.1 0.20039 0.20078 0.40039 0.30078 0.3 0.2 0.60039 0.3 0.90039 0.5 2.5 1.4 5.0008 2.5004 7.3008 3.4004 4.1 1.6 8.9992 3.1988 14.699 4.2988 7.5 1.4 16.3 1.9016 25.9 0.10156 4.7-0.8 9.5-2.2008 14.5-4.3008 3.5-1.3 7.4-3.2004 11.5-5.9004 0 0-4.9996 8.2004-18.1 11.9 3 3.8 6.5996 8.0996 6.5996 8.0996 22.1-0.7 30.6-15.199 30.6-15.199 0-32.2-14.4-58.301-14.4-58.301-14.4-10.8-28.1-10.5-28.1-10.5l-1.4004 1.5996c17 5.2 24.9 12.701 24.9 12.701-10.4-5.7-20.6-8.4996-30.1-9.5996-7.2-0.8-14.101-0.60078-20.201 0.19922-0.6 0-1.0992 0.09922-1.6992 0.19922-3.5 0.3-11.999 1.6008-22.699 6.3008-3.7 1.7-5.9004 2.9004-5.9004 2.9004s8.2988-7.8996 26.299-13.1zm-2.7988 37.301c5.7 0 10.299 4.9996 10.199 11.1 0 6.1-4.4992 11.1-10.199 11.1-5.6 0-10.201-4.9996-10.201-11.1s4.5012-11.1 10.201-11.1zm36.5 0c5.7 0 10.199 4.9996 10.199 11.1s-4.4992 11.1-10.199 11.1c-5.6 0-10.201-4.9996-10.201-11.1s4.5012-11.1 10.201-11.1z" fill="#fff"/>
</svg>
